<mxfile host="app.diagrams.net" agent="Mozilla/5.0 (Windows NT 10.0; Win64; x64) AppleWebKit/537.36 (KHTML, like Gecko) Chrome/138.0.0.0 Whale/4.33.325.17 Safari/537.36" version="28.2.5">
  <diagram name="SystemContext" id="e7b-GWR40l3FWDP6B04L">
    <mxGraphModel dx="2375" dy="1430" grid="0" gridSize="10" guides="1" tooltips="1" connect="1" arrows="1" fold="1" page="0" pageScale="1" pageWidth="827" pageHeight="1169" math="0" shadow="0">
      <root>
        <mxCell id="0" />
        <mxCell id="1" parent="0" />
        <mxCell id="qy6vEbNy7jpCNFTo5P8R-1" value="«user»&lt;br&gt;&lt;b&gt;호스트&lt;/b&gt;" style="html=1;dropTarget=0;whiteSpace=wrap;fontSize=16;" vertex="1" parent="1">
          <mxGeometry x="-192" y="78" width="128" height="48" as="geometry" />
        </mxCell>
        <mxCell id="qy6vEbNy7jpCNFTo5P8R-2" value="" style="shape=module;jettyWidth=8;jettyHeight=4;fontSize=16;" vertex="1" parent="qy6vEbNy7jpCNFTo5P8R-1">
          <mxGeometry x="1" width="20" height="20" relative="1" as="geometry">
            <mxPoint x="-27" y="7" as="offset" />
          </mxGeometry>
        </mxCell>
        <mxCell id="qy6vEbNy7jpCNFTo5P8R-3" value="«External System»&lt;br&gt;&lt;b&gt;스마트 도어락&lt;/b&gt;&lt;div&gt;&lt;b&gt;클라우드 플랫폼&lt;/b&gt;&lt;/div&gt;" style="html=1;dropTarget=0;whiteSpace=wrap;fontSize=16;" vertex="1" parent="1">
          <mxGeometry x="52" y="200" width="180" height="90" as="geometry" />
        </mxCell>
        <mxCell id="qy6vEbNy7jpCNFTo5P8R-4" value="" style="shape=module;jettyWidth=8;jettyHeight=4;fontSize=16;" vertex="1" parent="qy6vEbNy7jpCNFTo5P8R-3">
          <mxGeometry x="1" width="20" height="20" relative="1" as="geometry">
            <mxPoint x="-27" y="7" as="offset" />
          </mxGeometry>
        </mxCell>
        <mxCell id="qy6vEbNy7jpCNFTo5P8R-5" value="«System»&lt;br&gt;&lt;b&gt;스마트 출입 솔루션&lt;/b&gt;" style="html=1;dropTarget=0;whiteSpace=wrap;fontSize=26;" vertex="1" parent="1">
          <mxGeometry x="71" y="22" width="284" height="107" as="geometry" />
        </mxCell>
        <mxCell id="qy6vEbNy7jpCNFTo5P8R-6" value="" style="shape=module;jettyWidth=8;jettyHeight=4;" vertex="1" parent="qy6vEbNy7jpCNFTo5P8R-5">
          <mxGeometry x="1" width="20" height="20" relative="1" as="geometry">
            <mxPoint x="-27" y="7" as="offset" />
          </mxGeometry>
        </mxCell>
        <mxCell id="qy6vEbNy7jpCNFTo5P8R-9" value="«External System»&lt;br&gt;&lt;b&gt;결제 시스템&lt;/b&gt;" style="html=1;dropTarget=0;whiteSpace=wrap;fontSize=16;" vertex="1" parent="1">
          <mxGeometry x="479" y="73" width="195" height="57" as="geometry" />
        </mxCell>
        <mxCell id="qy6vEbNy7jpCNFTo5P8R-10" value="" style="shape=module;jettyWidth=8;jettyHeight=4;fontSize=16;" vertex="1" parent="qy6vEbNy7jpCNFTo5P8R-9">
          <mxGeometry x="1" width="20" height="20" relative="1" as="geometry">
            <mxPoint x="-27" y="7" as="offset" />
          </mxGeometry>
        </mxCell>
        <mxCell id="qy6vEbNy7jpCNFTo5P8R-11" value="«External System»&lt;br&gt;&lt;b&gt;알림서비스&lt;/b&gt;" style="html=1;dropTarget=0;whiteSpace=wrap;fontSize=16;" vertex="1" parent="1">
          <mxGeometry x="479" y="-57" width="195" height="76" as="geometry" />
        </mxCell>
        <mxCell id="qy6vEbNy7jpCNFTo5P8R-12" value="" style="shape=module;jettyWidth=8;jettyHeight=4;fontSize=16;" vertex="1" parent="qy6vEbNy7jpCNFTo5P8R-11">
          <mxGeometry x="1" width="20" height="20" relative="1" as="geometry">
            <mxPoint x="-27" y="7" as="offset" />
          </mxGeometry>
        </mxCell>
        <mxCell id="qy6vEbNy7jpCNFTo5P8R-13" value="«user»&lt;br&gt;&lt;b&gt;투숙객&lt;/b&gt;" style="html=1;dropTarget=0;whiteSpace=wrap;fontSize=16;" vertex="1" parent="1">
          <mxGeometry x="-192" y="25" width="128" height="48" as="geometry" />
        </mxCell>
        <mxCell id="qy6vEbNy7jpCNFTo5P8R-14" value="" style="shape=module;jettyWidth=8;jettyHeight=4;fontSize=16;" vertex="1" parent="qy6vEbNy7jpCNFTo5P8R-13">
          <mxGeometry x="1" width="20" height="20" relative="1" as="geometry">
            <mxPoint x="-27" y="7" as="offset" />
          </mxGeometry>
        </mxCell>
        <mxCell id="qy6vEbNy7jpCNFTo5P8R-16" value="«External System»&lt;br&gt;&lt;b&gt;예약 플랫폼&lt;/b&gt;" style="html=1;dropTarget=0;whiteSpace=wrap;fontSize=16;" vertex="1" parent="1">
          <mxGeometry x="479" y="199" width="193" height="83" as="geometry" />
        </mxCell>
        <mxCell id="qy6vEbNy7jpCNFTo5P8R-17" value="" style="shape=module;jettyWidth=8;jettyHeight=4;fontSize=16;" vertex="1" parent="qy6vEbNy7jpCNFTo5P8R-16">
          <mxGeometry x="1" width="20" height="20" relative="1" as="geometry">
            <mxPoint x="-27" y="7" as="offset" />
          </mxGeometry>
        </mxCell>
        <mxCell id="qy6vEbNy7jpCNFTo5P8R-63" style="rounded=0;orthogonalLoop=1;jettySize=auto;html=1;entryX=1;entryY=0.5;entryDx=0;entryDy=0;endArrow=none;endFill=0;exitX=1;exitY=0.5;exitDx=0;exitDy=0;exitPerimeter=0;" edge="1" parent="1" source="qy6vEbNy7jpCNFTo5P8R-66">
          <mxGeometry relative="1" as="geometry">
            <mxPoint x="-63" y="48.999999999999886" as="targetPoint" />
            <mxPoint x="-30" y="40" as="sourcePoint" />
          </mxGeometry>
        </mxCell>
        <mxCell id="qy6vEbNy7jpCNFTo5P8R-64" style="rounded=0;orthogonalLoop=1;jettySize=auto;html=1;exitX=0;exitY=0.5;exitDx=0;exitDy=0;exitPerimeter=0;entryX=0;entryY=0.25;entryDx=0;entryDy=0;endArrow=none;endFill=0;" edge="1" parent="1" source="qy6vEbNy7jpCNFTo5P8R-66">
          <mxGeometry relative="1" as="geometry">
            <mxPoint x="72" y="48.75" as="targetPoint" />
            <mxPoint x="-40" y="55.6602540378442" as="sourcePoint" />
          </mxGeometry>
        </mxCell>
        <mxCell id="qy6vEbNy7jpCNFTo5P8R-65" value="customerInterface" style="text;html=1;align=center;verticalAlign=middle;resizable=0;points=[];autosize=1;strokeColor=none;fillColor=none;" vertex="1" parent="1">
          <mxGeometry x="-49" y="11" width="114" height="26" as="geometry" />
        </mxCell>
        <mxCell id="qy6vEbNy7jpCNFTo5P8R-66" value="" style="shape=providedRequiredInterface;html=1;verticalLabelPosition=bottom;sketch=0;rotation=-180;" vertex="1" parent="1">
          <mxGeometry x="-1" y="39" width="20" height="20" as="geometry" />
        </mxCell>
        <mxCell id="qy6vEbNy7jpCNFTo5P8R-67" style="rounded=0;orthogonalLoop=1;jettySize=auto;html=1;endArrow=none;endFill=0;exitX=1;exitY=0.5;exitDx=0;exitDy=0;exitPerimeter=0;entryX=1;entryY=0.5;entryDx=0;entryDy=0;" edge="1" parent="1" source="qy6vEbNy7jpCNFTo5P8R-70">
          <mxGeometry relative="1" as="geometry">
            <mxPoint x="-63" y="102" as="targetPoint" />
            <mxPoint x="-37" y="95" as="sourcePoint" />
          </mxGeometry>
        </mxCell>
        <mxCell id="qy6vEbNy7jpCNFTo5P8R-68" style="rounded=0;orthogonalLoop=1;jettySize=auto;html=1;exitX=0;exitY=0.5;exitDx=0;exitDy=0;exitPerimeter=0;entryX=0;entryY=0.75;entryDx=0;entryDy=0;endArrow=none;endFill=0;" edge="1" parent="1" source="qy6vEbNy7jpCNFTo5P8R-70">
          <mxGeometry relative="1" as="geometry">
            <mxPoint x="72" y="102.24999999999989" as="targetPoint" />
            <mxPoint x="-47" y="110.6602540378442" as="sourcePoint" />
          </mxGeometry>
        </mxCell>
        <mxCell id="qy6vEbNy7jpCNFTo5P8R-69" value="HostInterface" style="text;html=1;align=center;verticalAlign=middle;resizable=0;points=[];autosize=1;strokeColor=none;fillColor=none;" vertex="1" parent="1">
          <mxGeometry x="-32" y="66" width="89" height="26" as="geometry" />
        </mxCell>
        <mxCell id="qy6vEbNy7jpCNFTo5P8R-70" value="" style="shape=providedRequiredInterface;html=1;verticalLabelPosition=bottom;sketch=0;rotation=-180;" vertex="1" parent="1">
          <mxGeometry x="2" y="92" width="20" height="20" as="geometry" />
        </mxCell>
        <mxCell id="qy6vEbNy7jpCNFTo5P8R-72" style="rounded=0;orthogonalLoop=1;jettySize=auto;html=1;entryX=0.5;entryY=0;entryDx=0;entryDy=0;endArrow=none;endFill=0;exitX=1;exitY=0.5;exitDx=0;exitDy=0;exitPerimeter=0;edgeStyle=orthogonalEdgeStyle;" edge="1" parent="1" source="qy6vEbNy7jpCNFTo5P8R-75" target="qy6vEbNy7jpCNFTo5P8R-5">
          <mxGeometry relative="1" as="geometry">
            <mxPoint x="308" y="-19" as="targetPoint" />
            <mxPoint x="373" y="-28" as="sourcePoint" />
          </mxGeometry>
        </mxCell>
        <mxCell id="qy6vEbNy7jpCNFTo5P8R-73" style="rounded=0;orthogonalLoop=1;jettySize=auto;html=1;exitX=0;exitY=0.5;exitDx=0;exitDy=0;exitPerimeter=0;entryX=0;entryY=0.5;entryDx=0;entryDy=0;endArrow=none;endFill=0;" edge="1" parent="1" source="qy6vEbNy7jpCNFTo5P8R-75" target="qy6vEbNy7jpCNFTo5P8R-11">
          <mxGeometry relative="1" as="geometry">
            <mxPoint x="458" y="-19" as="targetPoint" />
            <mxPoint x="363" y="-10.339745962155803" as="sourcePoint" />
          </mxGeometry>
        </mxCell>
        <mxCell id="qy6vEbNy7jpCNFTo5P8R-74" value="notifyInterface" style="text;html=1;align=center;verticalAlign=middle;resizable=0;points=[];autosize=1;strokeColor=none;fillColor=none;" vertex="1" parent="1">
          <mxGeometry x="342" y="-57" width="93" height="26" as="geometry" />
        </mxCell>
        <mxCell id="qy6vEbNy7jpCNFTo5P8R-75" value="" style="shape=providedRequiredInterface;html=1;verticalLabelPosition=bottom;sketch=0;rotation=-180;" vertex="1" parent="1">
          <mxGeometry x="378" y="-29" width="20" height="20" as="geometry" />
        </mxCell>
        <mxCell id="qy6vEbNy7jpCNFTo5P8R-92" style="rounded=0;orthogonalLoop=1;jettySize=auto;html=1;entryX=1;entryY=0.75;entryDx=0;entryDy=0;endArrow=none;endFill=0;exitX=1;exitY=0.5;exitDx=0;exitDy=0;exitPerimeter=0;" edge="1" parent="1" source="qy6vEbNy7jpCNFTo5P8R-95" target="qy6vEbNy7jpCNFTo5P8R-5">
          <mxGeometry relative="1" as="geometry">
            <mxPoint x="363" y="82" as="targetPoint" />
            <mxPoint x="428" y="73" as="sourcePoint" />
          </mxGeometry>
        </mxCell>
        <mxCell id="qy6vEbNy7jpCNFTo5P8R-93" style="rounded=0;orthogonalLoop=1;jettySize=auto;html=1;exitX=0;exitY=0.5;exitDx=0;exitDy=0;exitPerimeter=0;entryX=0;entryY=0.5;entryDx=0;entryDy=0;endArrow=none;endFill=0;" edge="1" parent="1" source="qy6vEbNy7jpCNFTo5P8R-95" target="qy6vEbNy7jpCNFTo5P8R-9">
          <mxGeometry relative="1" as="geometry">
            <mxPoint x="513" y="82" as="targetPoint" />
            <mxPoint x="418" y="90.6602540378442" as="sourcePoint" />
          </mxGeometry>
        </mxCell>
        <mxCell id="qy6vEbNy7jpCNFTo5P8R-94" value="paymentInterface" style="text;html=1;align=center;verticalAlign=middle;resizable=0;points=[];autosize=1;strokeColor=none;fillColor=none;" vertex="1" parent="1">
          <mxGeometry x="368" y="62.5" width="111" height="26" as="geometry" />
        </mxCell>
        <mxCell id="qy6vEbNy7jpCNFTo5P8R-95" value="" style="shape=providedRequiredInterface;html=1;verticalLabelPosition=bottom;sketch=0;rotation=-180;" vertex="1" parent="1">
          <mxGeometry x="405" y="92" width="20" height="20" as="geometry" />
        </mxCell>
        <mxCell id="qy6vEbNy7jpCNFTo5P8R-100" style="edgeStyle=orthogonalEdgeStyle;rounded=0;orthogonalLoop=1;jettySize=auto;html=1;exitX=1;exitY=0.5;exitDx=0;exitDy=0;exitPerimeter=0;endArrow=none;endFill=0;entryX=0.25;entryY=1;entryDx=0;entryDy=0;" edge="1" parent="1" source="qy6vEbNy7jpCNFTo5P8R-102" target="qy6vEbNy7jpCNFTo5P8R-5">
          <mxGeometry relative="1" as="geometry">
            <mxPoint x="207" y="148" as="targetPoint" />
          </mxGeometry>
        </mxCell>
        <mxCell id="qy6vEbNy7jpCNFTo5P8R-101" style="edgeStyle=orthogonalEdgeStyle;rounded=0;orthogonalLoop=1;jettySize=auto;html=1;exitX=0;exitY=0.5;exitDx=0;exitDy=0;exitPerimeter=0;endArrow=none;endFill=0;entryX=0.5;entryY=0;entryDx=0;entryDy=0;" edge="1" parent="1" source="qy6vEbNy7jpCNFTo5P8R-102" target="qy6vEbNy7jpCNFTo5P8R-3">
          <mxGeometry relative="1" as="geometry">
            <mxPoint x="206" y="249" as="targetPoint" />
          </mxGeometry>
        </mxCell>
        <mxCell id="qy6vEbNy7jpCNFTo5P8R-102" value="" style="shape=providedRequiredInterface;html=1;verticalLabelPosition=bottom;sketch=0;rotation=-90;" vertex="1" parent="1">
          <mxGeometry x="132" y="153" width="20" height="20" as="geometry" />
        </mxCell>
        <mxCell id="qy6vEbNy7jpCNFTo5P8R-103" value="lockerInterface" style="text;html=1;align=center;verticalAlign=middle;resizable=0;points=[];autosize=1;strokeColor=none;fillColor=none;" vertex="1" parent="1">
          <mxGeometry x="150" y="152" width="97" height="26" as="geometry" />
        </mxCell>
        <mxCell id="qy6vEbNy7jpCNFTo5P8R-104" style="rounded=0;orthogonalLoop=1;jettySize=auto;html=1;entryX=0.75;entryY=1;entryDx=0;entryDy=0;endArrow=none;endFill=0;exitX=1;exitY=0.5;exitDx=0;exitDy=0;exitPerimeter=0;edgeStyle=orthogonalEdgeStyle;" edge="1" parent="1" source="qy6vEbNy7jpCNFTo5P8R-107" target="qy6vEbNy7jpCNFTo5P8R-5">
          <mxGeometry relative="1" as="geometry">
            <mxPoint x="339" y="239.5" as="targetPoint" />
            <mxPoint x="412" y="210.5" as="sourcePoint" />
          </mxGeometry>
        </mxCell>
        <mxCell id="qy6vEbNy7jpCNFTo5P8R-105" style="rounded=0;orthogonalLoop=1;jettySize=auto;html=1;exitX=0;exitY=0.5;exitDx=0;exitDy=0;exitPerimeter=0;entryX=0;entryY=0.5;entryDx=0;entryDy=0;endArrow=none;endFill=0;" edge="1" parent="1" source="qy6vEbNy7jpCNFTo5P8R-107" target="qy6vEbNy7jpCNFTo5P8R-16">
          <mxGeometry relative="1" as="geometry">
            <mxPoint x="515" y="239.5" as="targetPoint" />
            <mxPoint x="402" y="228.1602540378442" as="sourcePoint" />
          </mxGeometry>
        </mxCell>
        <mxCell id="qy6vEbNy7jpCNFTo5P8R-106" value="platformInterface" style="text;html=1;align=center;verticalAlign=middle;resizable=0;points=[];autosize=1;strokeColor=none;fillColor=none;" vertex="1" parent="1">
          <mxGeometry x="353" y="200" width="108" height="26" as="geometry" />
        </mxCell>
        <mxCell id="qy6vEbNy7jpCNFTo5P8R-107" value="" style="shape=providedRequiredInterface;html=1;verticalLabelPosition=bottom;sketch=0;rotation=-180;" vertex="1" parent="1">
          <mxGeometry x="400" y="229.5" width="20" height="20" as="geometry" />
        </mxCell>
        <mxCell id="qy6vEbNy7jpCNFTo5P8R-111" style="edgeStyle=none;shape=connector;curved=1;rounded=0;orthogonalLoop=1;jettySize=auto;html=1;exitX=0.5;exitY=0;exitDx=0;exitDy=0;exitPerimeter=0;entryX=0.5;entryY=1;entryDx=0;entryDy=0;dashed=1;strokeColor=default;align=center;verticalAlign=middle;fontFamily=Helvetica;fontSize=12;fontColor=default;labelBackgroundColor=default;startSize=8;endArrow=none;endFill=0;endSize=8;" edge="1" parent="1" source="qy6vEbNy7jpCNFTo5P8R-108" target="qy6vEbNy7jpCNFTo5P8R-1">
          <mxGeometry relative="1" as="geometry" />
        </mxCell>
        <mxCell id="qy6vEbNy7jpCNFTo5P8R-108" value="&lt;div&gt;&lt;span style=&quot;font-size: 14px;&quot;&gt;호스트 15만명, 투숙객 20만명&lt;/span&gt;&lt;/div&gt;&lt;span style=&quot;font-size: 14px;&quot;&gt;&lt;div&gt;&lt;span style=&quot;font-size: 14px;&quot;&gt;&lt;br&gt;&lt;/span&gt;&lt;/div&gt;&lt;div&gt;&lt;div style=&quot;font-size: 12px;&quot;&gt;&lt;span style=&quot;font-size: 14px; background-color: transparent; color: light-dark(rgb(0, 0, 0), rgb(255, 255, 255));&quot;&gt;에어 비앤비 전세꼐 호스트 500만명&lt;/span&gt;&lt;/div&gt;&lt;div style=&quot;font-size: 12px;&quot;&gt;&lt;font style=&quot;font-size: 14px;&quot;&gt;이 중 슈퍼 호스트는 100만명.&lt;/font&gt;&lt;/div&gt;&lt;div style=&quot;font-size: 12px;&quot;&gt;&lt;font style=&quot;font-size: 14px;&quot;&gt;&lt;br&gt;&lt;/font&gt;&lt;/div&gt;&lt;div style=&quot;font-size: 12px;&quot;&gt;&lt;font style=&quot;font-size: 14px;&quot;&gt;슈퍼 호스트는 높은 확률로 스마트 도어락을 사용하거나 관심이 있을 것으로 추정.&lt;/font&gt;&lt;/div&gt;&lt;div style=&quot;font-size: 12px;&quot;&gt;&lt;font style=&quot;font-size: 14px;&quot;&gt;&lt;br&gt;&lt;/font&gt;&lt;/div&gt;&lt;div style=&quot;font-size: 12px;&quot;&gt;&lt;font style=&quot;font-size: 14px;&quot;&gt;100만명 시장으로 보고 점유율 15%를 목표로 했을 때&amp;nbsp;&lt;/font&gt;&lt;span style=&quot;background-color: transparent; color: light-dark(rgb(0, 0, 0), rgb(255, 255, 255)); font-size: 14px;&quot;&gt;호스트 15만명 가정&lt;/span&gt;&lt;/div&gt;&lt;/div&gt;&lt;/span&gt;&lt;div&gt;&lt;span style=&quot;font-size: 14px;&quot;&gt;&lt;br&gt;&lt;/span&gt;&lt;/div&gt;&lt;div&gt;&lt;span style=&quot;font-size: 14px;&quot;&gt;호스트 당 평균 호스팅 숙소 1.5개로 가정, 투숙객 20만명&lt;/span&gt;&lt;/div&gt;" style="shape=note2;boundedLbl=1;html=1;size=25;verticalAlign=top;align=left;spacing=2;whiteSpace=wrap;spacingBottom=0;fontSize=12;" vertex="1" parent="1">
          <mxGeometry x="-239" y="149" width="222" height="283" as="geometry" />
        </mxCell>
      </root>
    </mxGraphModel>
  </diagram>
</mxfile>
